<?xml version="1.0" encoding="iso-8859-1"?>
<!-- Generator: Adobe Illustrator 21.0.0, SVG Export Plug-In . SVG Version: 6.00 Build 0)  -->
<svg xmlns="http://www.w3.org/2000/svg" xmlns:xlink="http://www.w3.org/1999/xlink" version="1.1" id="Capa_1" x="0px" y="0px" viewBox="0 0 511.999 511.999" style="enable-background:new 0 0 511.999 511.999;" xml:space="preserve" width="512" height="512">
<g>
	<path style="fill:#566CC3;" d="M500.657,279.874c7.107-134.88-96.317-250.119-231.249-257.514   C134.302,14.956,18.773,118.48,11.369,253.587c-1.491,27.21,1.524,53.624,8.383,78.523l183.619,174.183   c12.714,2.78,25.81,4.598,39.225,5.333c26.78,1.468,52.785-1.438,77.337-8.069L500.657,279.874z"/>
	<g>
		<path style="fill:#FAD964;" d="M234.774,101.462c-23.41,0-42.456-19.046-42.456-42.457s19.046-42.457,42.456-42.457    s42.456,19.046,42.456,42.457S258.184,101.462,234.774,101.462z M234.774,32.176c-14.793,0-26.828,12.035-26.828,26.829    c0,14.793,12.035,26.829,26.828,26.829c14.793,0,26.828-12.035,26.828-26.829C261.602,44.212,249.567,32.176,234.774,32.176z"/>
	</g>
	<g>
		<path style="fill:#FAB941;" d="M298.458,95.774c-20.274,11.705-46.291,4.734-57.997-15.54    c-11.705-20.274-4.734-46.292,15.54-57.997c20.274-11.705,46.292-4.734,57.997,15.54S318.733,84.068,298.458,95.774z     M263.816,35.771c-12.811,7.397-17.216,23.837-9.82,36.648c7.397,12.811,23.837,17.217,36.648,9.82    c12.811-7.397,17.217-23.837,9.82-36.649C293.068,32.779,276.627,28.374,263.816,35.771z"/>
	</g>
	<circle style="fill:#FC757E;" cx="277.23" cy="10.419" r="10.419"/>
	<g>
		<path style="fill:#F6A221;" d="M285.034,84.668c-11.665,3.548-24.685-1.247-31.038-12.249    c-6.417-11.114-3.947-24.955,5.183-33.258c-6.267-0.363-10.815-6.125-9.638-12.333c-15.163,13.039-19.436,35.466-9.079,53.404    c10.421,18.05,32.184,25.543,51.141,18.712C285.496,97.163,282.435,90.435,285.034,84.668z"/>
	</g>
	<g>
		<path style="fill:#FAB941;" d="M242.567,84.668c-11.665,3.548-24.685-1.247-31.038-12.249    c-6.417-11.114-3.947-24.955,5.183-33.258c-6.267-0.363-10.815-6.125-9.638-12.333c-15.163,13.039-19.436,35.466-9.079,53.404    c10.421,18.05,32.184,25.543,51.141,18.712C243.028,97.163,239.968,90.435,242.567,84.668z"/>
	</g>
	<path style="fill:#FAD964;" d="M256.484,43.279c3.187-4.195,7.615-7.395,12.732-9.054c-3.682-5.103-8.469-9.355-14.007-12.409   c-4.969,2.954-9.3,6.87-12.73,11.497C248.171,35.023,253.07,38.577,256.484,43.279z"/>
	<path style="fill:#E2E9F2;" d="M500.635,280.4c0.139-2.53,0.226-5.051,0.287-7.566l-41.22-114.041l-63.054-0.316l-63.054-0.316   l-70.588,189.337l132.692,0.664l91.358,0.457C494.628,327.155,499.327,304.274,500.635,280.4z"/>
	<path style="fill:#C7D6E5;" d="M486.571,233.128c-2.391,38.501-34.39,70.556-75.218,70.556h-15.18h-15.18   c-40.933,0-72.994-32.221-75.238-70.853l-42.749,114.667l132.692,0.665l91.358,0.457c7.572-21.464,12.271-44.345,13.58-68.22   c0.139-2.53,0.226-5.051,0.287-7.566L486.571,233.128z"/>
	<polygon style="fill:#C7D6E5;" points="459.228,158.475 396.173,158.475 333.118,158.475 298.34,324.238 396.173,324.238    494.006,324.238  "/>
	<path style="fill:#AEBFCE;" d="M480.279,258.81c-11.585,26.084-37.669,44.875-68.926,44.875h-15.18h-15.18   c-31.258,0-57.341-18.79-68.926-44.875l-13.727,65.429h97.833h97.833L480.279,258.81z"/>
	<path style="fill:#EFC1A8;" d="M494.244,324.285c-0.078-0.015-0.162-0.033-0.238-0.047c-3.522-0.67-6.955-1.732-10.244-3.158   l-34.206-14.836c-7.746-3.359-13.456-10.173-15.408-18.388l-2.874-12.089c-6.913,7.918-15.586,14.223-25.354,18.449   c-6.204,2.684-13.315,2.674-19.494,0c-9.769-4.226-18.441-10.531-25.354-18.449l-2.874,12.089   c-1.953,8.214-7.662,15.028-15.408,18.388l-34.206,14.836c-3.289,1.427-6.722,2.489-10.243,3.158   c-8.354,1.589-26.871,7.419-37.405,28.488c-13.903,27.806-12.639,103.008-7.583,148.509l0.018,10.733   c15.106,0.173,29.935-1.025,44.357-3.503l-0.134-87.023c0.096,7.869,1.308,40.81,14.591,61.149l0.924,22.702   C401.82,484.07,472.698,414.334,494.244,324.285z"/>
	<path style="fill:#EFC1A8;" d="M341.741,227.13c0,0-3.436-21.746,0.522-34.696c-3.591-2.393-10.528-3.562-13.649-0.512   c-6.388,6.245-1.708,15.676,0.533,21.633c0.688,1.829,1.131,3.679,1.332,5.533c0.436,4.027,2.619,9.922,11.673,9.783   C342.015,228.291,341.875,227.72,341.741,227.13z"/>
	<path style="fill:#E5AF98;" d="M340.367,209.882c-1.725,0.972-3.713,1.533-5.835,1.533c-2.68,0-5.144-0.896-7.134-2.389   c0.603,1.637,1.239,3.173,1.749,4.529c0.688,1.829,1.131,3.679,1.332,5.533c0.436,4.027,2.619,9.922,11.673,9.783   c-0.137-0.58-0.277-1.151-0.411-1.741C341.741,227.13,340.474,219.093,340.367,209.882z"/>
	<path style="fill:#EFC1A8;" d="M450.604,227.13c0,0,3.436-21.746-0.522-34.696c3.591-2.393,10.528-3.562,13.649-0.512   c6.388,6.245,1.708,15.676-0.533,21.633c-0.688,1.829-1.131,3.679-1.332,5.533c-0.436,4.027-2.619,9.922-11.673,9.783   C450.331,228.291,450.471,227.72,450.604,227.13z"/>
	<path style="fill:#E5AF98;" d="M451.978,209.882c1.725,0.972,3.713,1.533,5.835,1.533c2.68,0,5.144-0.896,7.134-2.389   c-0.603,1.637-1.239,3.173-1.749,4.529c-0.688,1.829-1.131,3.679-1.332,5.533c-0.436,4.027-2.619,9.922-11.673,9.783   c0.137-0.58,0.277-1.151,0.411-1.741C450.604,227.13,451.872,219.093,451.978,209.882z"/>
	<path style="fill:#9A2423;" d="M396.173,106.422c10.835,0,20.027,2.086,27.764,5.299c0.219-1.413,0.333-2.86,0.333-4.334   c0-15.518-12.58-28.098-28.098-28.098c-15.518,0-28.098,12.58-28.098,28.098c0,1.474,0.115,2.921,0.333,4.334   C376.146,108.508,385.338,106.422,396.173,106.422z"/>
	<path style="fill:#F9D6BF;" d="M447.767,185.996c-1.309-1.475-2.13-3.301-2.189-5.253c-0.341-11.406-4.725-46.557-46.827-30.417   c-1.655,0.634-3.501,0.634-5.155,0c-42.103-16.14-46.487,19.01-46.828,30.417c-0.058,1.952-0.88,3.778-2.189,5.253   c-8.777,9.89-3.837,41.134-3.837,41.134c4.198,18.524,10.046,32.284,15.947,42.383c6.983,11.95,17.723,21.26,30.459,26.77   c5.722,2.475,12.305,2.485,18.05,0c12.736-5.51,23.476-14.82,30.459-26.77c5.902-10.1,11.75-23.86,15.948-42.383   C451.604,227.13,456.543,195.886,447.767,185.996z"/>
	<g>
		<path style="fill:#EFC1A8;" d="M384.384,269.513c-4.204-10.1-8.37-23.86-11.361-42.383c0,0-3.519-31.244,2.734-41.134    c0.933-1.475,1.518-3.301,1.559-5.253c0.161-7.567,1.593-25.582,11.296-32.14c-37.466-11.567-41.518,21.201-41.845,32.14    c-0.058,1.952-0.88,3.778-2.189,5.253c-8.777,9.89-3.838,41.134-3.838,41.134c4.198,18.523,10.046,32.284,15.947,42.383    c6.983,11.95,17.723,21.261,30.459,26.771c5.722,2.476,12.305,2.485,18.05,0c0.174-0.075,0.344-0.159,0.517-0.236    C396.805,290.511,389.291,281.3,384.384,269.513z"/>
	</g>
	<path style="fill:#FAD964;" d="M363.498,114.806c8.67-4.473,19.451-7.577,32.675-7.577c13.224,0,24.005,3.104,32.675,7.577   c0.157,0.081,0.308,0.167,0.464,0.249c-8.02-9.309-19.887-17.173-33.139-17.173c-13.252,0-25.118,7.864-33.139,17.174   C363.19,114.973,363.342,114.886,363.498,114.806z"/>
	<path style="fill:#9A2423;" d="M464.975,195.52c-7.287-14.499-5.082-26.501-5.453-31.307c0-20.98-11.695-40.422-30.674-50.214   c-8.67-4.473-19.451-7.577-32.675-7.577c-13.224,0-24.005,3.104-32.675,7.577c-18.979,9.792-30.674,29.234-30.674,50.214v25.88   l0.001,0.009c2.993-0.07,6.305,0.911,8.438,2.332v0c0.786-2.572,1.862-4.799,3.316-6.438c1.309-1.475,2.13-3.301,2.189-5.253   c0.091-3.053,0.472-7.807,1.789-12.824c1.46-5.563,8.528-7.212,12.454-3.008c13.796,14.769,43.019,34.99,100.24,36.464   C464.305,201.454,466.347,198.249,464.975,195.52z"/>
	<path style="fill:#E2E9F2;" d="M466.071,393.134c-14.298-8.04-34.082-12.536-59.671-3.876c-6.645,2.249-13.81,2.249-20.455,0   c-60.274-20.399-88.353,32.184-88.353,32.184c0.087,7.059,1.07,34.293,10.861,54.508c2.433,5.024,3.886,10.465,4.113,16.042h0   l0.542,13.3C377.517,489.884,432.519,448.901,466.071,393.134z"/>
	<path style="fill:#C7D6E5;" d="M347.504,490.319L347.504,490.319c-0.228-6.279-1.68-12.405-4.113-18.061   c-4.474-10.401-7.109-22.453-8.66-33.233c-2.962-20.596,4.569-40.917,19.242-54.271c-38.293,2.834-56.381,36.689-56.381,36.689   c0.086,7.059,1.07,34.293,10.86,54.508c2.433,5.024,3.886,10.465,4.113,16.042h0l0.542,13.3   c11.858-2.836,23.393-6.546,34.538-11.049L347.504,490.319z"/>
	<path style="fill:#3A3A60;" d="M214.714,325.517c-4.664-0.381-7.145-2.191-12.641-5.29c-13.726-7.74-27.682-13.469-43.036-17.012   c-6.995-6.995-8.768-20.256-9.087-29.534c-9.802,11.418-20.968,19.198-36.14,19.198c-9.064,0-17.866-3.008-24.998-8.547   c-3.661-2.843-7.492-6.399-11.142-10.651c-0.319,9.278-2.093,22.539-9.088,29.534c-15.354,3.543-29.31,9.272-43.035,17.012   c-3.305,1.864-5.52,3.257-7.775,4.158c22.28,92.642,97.482,165.787,193.444,183.503c0.014-1.004,0.022-1.931,0.022-2.754   c0-22.595,8.926-45.97,9.289-71.64c-0.066,8.566-0.036,49.398,6.222,69.617l0.094,7.129c5.201,0.618,10.45,1.095,15.753,1.385   c10.232,0.561,20.349,0.475,30.317-0.202c0.149-5.919,0.235-10.988,0.235-14.787c0,0,8.902-35.609-4.046-82.144   C269.102,414.494,278.123,330.7,214.714,325.517z"/>
	<path style="fill:#EFC1A8;" d="M77.67,273.681c-0.234,6.798-1.259,15.727-4.536,22.77l40.676,42.01l40.676-42.01   c-3.277-7.043-4.301-15.972-4.535-22.77c-9.802,11.418-20.968,19.198-36.14,19.198c-9.064,0-17.866-3.008-24.998-8.547   C85.151,281.49,81.32,277.933,77.67,273.681z"/>
	<path style="fill:#E2E9F2;" d="M153.761,294.798l-39.951,41.338l-39.951-41.338l-0.005-0.002c-0.463,1.151-0.98,2.261-1.554,3.319   l11.377,143.008c16.753,16.592,35.912,30.803,56.954,42.05l14.689-185.058c-0.574-1.058-1.092-2.169-1.555-3.321L153.761,294.798z"/>
	<path style="fill:#C7D6E5;" d="M72.3,298.116l2.695,33.882l15.722,18.132c2.12,2.445,5.856,2.613,8.186,0.368l14.907-14.361   l-39.951-41.338l-0.007,0.005C73.389,295.952,72.873,297.06,72.3,298.116z"/>
	<path style="fill:#E2E9F2;" d="M136.903,350.13l15.728-18.14l2.689-33.874c-0.573-1.056-1.09-2.165-1.552-3.314l-0.007-0.005   l-39.951,41.338l14.907,14.361C131.047,352.742,134.783,352.575,136.903,350.13z"/>
	<path style="fill:#FC7080;" d="M149.526,337.333c-1.57-8.097-10.961-11.905-17.771-7.252l-11.376,7.773   c2.864,1.079,4.789,3.863,4.935,7.143c0.148,3.308-1.526,6.196-4.176,7.545c9.47,3.93,24.276,7.419,28.115-6.881   C150.047,342.707,150.023,339.897,149.526,337.333z"/>
	<path style="fill:#FE505F;" d="M121.138,352.543c4.174,1.732,9.383,3.378,14.234,3.453c-3.788-2.175-6.255-6.38-6.209-11.092   c0.01-0.981-0.113-1.953-0.365-2.882c-1.186-4.364-0.019-8.966,3.111-12.038c-0.051,0.034-0.103,0.064-0.154,0.098l-11.376,7.773   c2.864,1.079,4.789,3.863,4.935,7.143C125.462,348.305,123.788,351.194,121.138,352.543z"/>
	<path style="fill:#FE505F;" d="M77.881,337.333c1.57-8.097,10.961-11.905,17.771-7.252l11.376,7.773   c-2.864,1.079-4.788,3.863-4.935,7.143c-0.148,3.308,1.526,6.196,4.176,7.545c-9.47,3.93-24.276,7.419-28.116-6.881   C77.36,342.707,77.384,339.897,77.881,337.333z"/>
	<path style="fill:#DE3648;" d="M106.269,352.543c-4.174,1.732-9.383,3.378-14.234,3.453c3.788-2.175,6.256-6.38,6.209-11.092   c-0.01-0.981,0.113-1.953,0.365-2.882c1.186-4.364,0.019-8.966-3.111-12.038c0.051,0.034,0.103,0.064,0.154,0.098l11.376,7.773   c-2.864,1.079-4.789,3.863-4.935,7.143C101.945,348.305,103.619,351.194,106.269,352.543z"/>
	<path style="fill:#FC7080;" d="M118.666,335.454c-1.173-0.054-2.298,0.116-3.339,0.469c-1.05,0.357-2.196,0.357-3.246,0   c-1.041-0.354-2.167-0.523-3.339-0.469c-4.652,0.215-8.009,3.992-8.217,8.644c-0.232,5.198,3.498,9.485,8.645,9.485   c1.013,0,1.986-0.167,2.895-0.474c1.062-0.359,2.218-0.359,3.28,0c0.909,0.307,1.882,0.474,2.895,0.474   c5.147,0,8.877-4.288,8.645-9.486C126.675,339.446,123.318,335.669,118.666,335.454z"/>
	<path style="fill:#FE505F;" d="M110.004,344.062c0.149-3.334,1.793-6.247,4.34-7.916c-0.758,0.097-1.534,0.025-2.264-0.223   c-1.041-0.354-2.167-0.523-3.339-0.469c-4.652,0.215-8.009,3.992-8.217,8.644c-0.232,5.198,3.498,9.485,8.645,9.485   c1.013,0,1.986-0.167,2.895-0.474c0.725-0.245,1.494-0.318,2.246-0.229C111.536,351.066,109.838,347.779,110.004,344.062z"/>
	<circle style="fill:#C7D6E5;" cx="113.81" cy="369.363" r="7.168"/>
	<circle style="fill:#C7D6E5;" cx="113.81" cy="397.207" r="7.168"/>
	<circle style="fill:#C7D6E5;" cx="113.81" cy="425.05" r="7.168"/>
	<circle style="fill:#C7D6E5;" cx="113.81" cy="452.894" r="7.168"/>
	<path style="fill:#C7D6E5;" d="M448.58,418.462c-11.724-1.904-25.754-1.808-42.175,2.058c-6.732,1.585-13.732,1.585-20.463,0   c-52.41-12.338-80.472,13.708-86.902,20.714c1.392,10.75,4.108,23.762,9.414,34.716c2.433,5.024,3.886,10.465,4.113,16.042h0   l0.542,13.3C367.323,492.323,414.875,461.238,448.58,418.462z"/>
	<path style="fill:#AEBFCE;" d="M312.566,491.992c0.189,4.651,0.352,8.648,0.542,13.3c8.915-2.029,22.252-6.085,34.538-11.049   l-0.142-3.924h0c-0.633-17.498-8.099-18.799-12.773-51.294c-0.906-6.3-0.826-12.573,0.136-18.63   c-20.197,5.481-31.95,16.616-35.827,20.84C303.3,474.142,311.911,475.882,312.566,491.992L312.566,491.992z"/>
	<path style="fill:#5D5D84;" d="M173.901,307.46l-20.14-12.661l-13.676,188.084c4.402,2.367,8.88,4.617,13.443,6.719l18.566-74.32   c0.471-1.679,0.244-3.477-0.629-4.987L161.23,392.59c-0.54-0.934-0.306-2.123,0.547-2.783l16.857-13.037   c1.79-1.384,2.727-3.603,2.472-5.851L173.901,307.46z"/>
	<path style="fill:#5D5D84;" d="M73.906,294.798l-20.14,12.661l-7.205,63.459c-0.255,2.248,0.682,4.467,2.472,5.851l16.857,13.037   c0.853,0.66,1.087,1.849,0.547,2.783l-9.749,16.864c8.345,11.66,17.691,22.57,27.925,32.598L73.906,294.798z"/>
	<g>
		<path style="fill:#9A2423;" d="M101.723,102.215c-36.296,4.945-39.746,25.524-39.762,33.074c-0.003,1.583-0.881,3.051-2.304,3.743    c-18.88,9.184-8.701,53.45-8.701,53.45c1.896,0.127,3.88,0.895,5.361,1.611c1.825-11.364,7.114-12.149,6.496-20.571    c-0.679-9.235-0.352-27.431,11.838-32.916c10.326-4.647,22.994-1.956,31.072,0.73c5.246,1.745,10.929,1.745,16.175,0    c8.078-2.686,20.745-5.377,31.072-0.73c12.155,5.469,12.515,23.578,11.844,32.837c-0.233,3.219,0.532,6.448,2.272,9.177    c1.027,1.611,1.842,3.32,2.489,5.007c0.804,2.098,1.376,4.265,1.729,6.465c1.866-0.904,4.532-1.888,6.813-1.566    c0.279-9.679,1.173-20.113,1.173-20.113C190.046,119.734,140.804,96.89,101.723,102.215z"/>
	</g>
	<path style="fill:#EFC1A8;" d="M46.419,193.785c2.827-2.591,8.458-1.278,10.893,0.309c-0.533,3.322-0.564,6.72-0.103,10.075   l2.873,20.926c0,1.687,0.053,3.342,0.151,4.968c-7.006,2.113-10.486-4.177-11.073-8.493c-0.252-1.858-0.665-3.689-1.237-5.477   C46.059,210.273,39.336,200.276,46.419,193.785z"/>
	<path style="fill:#E5AF98;" d="M58.15,211.027c-3.544,2.629-8.273,2.84-12.036,0.531c0.708,1.668,1.384,3.211,1.809,4.536   c0.572,1.787,0.985,3.618,1.237,5.476c0.586,4.316,4.067,10.606,11.073,8.493c-0.098-1.626-0.151-3.281-0.151-4.968L58.15,211.027z   "/>
	<path style="fill:#EFC1A8;" d="M181.201,193.785c-2.827-2.591-8.458-1.278-10.893,0.309c0.533,3.322,0.564,6.72,0.103,10.075   l-2.873,20.926c0,1.687-0.053,3.342-0.151,4.968c7.006,2.113,10.486-4.177,11.073-8.493c0.252-1.858,0.665-3.689,1.237-5.477   C181.561,210.273,188.284,200.276,181.201,193.785z"/>
	<path style="fill:#E5AF98;" d="M169.47,211.027c3.544,2.629,8.273,2.84,12.036,0.531c-0.708,1.668-1.384,3.211-1.809,4.536   c-0.572,1.787-0.985,3.618-1.237,5.476c-0.586,4.316-4.067,10.606-11.073,8.493c0.098-1.626,0.151-3.281,0.151-4.968   L169.47,211.027z"/>
	<g>
		<path style="fill:#891B1B;" d="M90.121,121.837c0-8.848,5.322-16.449,12.938-19.788c-0.446,0.053-0.892,0.106-1.336,0.166    c-36.296,4.946-39.746,25.524-39.762,33.075c-0.003,1.583-0.881,3.051-2.304,3.743c-18.88,9.184-8.701,53.45-8.701,53.45    c1.896,0.126,3.88,0.894,5.361,1.611c1.812-11.279,7.112-12.184,6.496-20.571c-0.679-9.235-0.352-27.431,11.838-32.916    c7.902-3.556,17.169-2.811,24.707-1.063C93.775,135.638,90.121,129.166,90.121,121.837z"/>
	</g>
	<g>
		<path style="fill:#FAD964;" d="M396.044,374.484c-19.37,0-36.303-17.419-45.304-46.608l-7.292-23.647    c-0.977-3.167,0.799-6.525,3.965-7.502c3.166-0.977,6.525,0.799,7.501,3.966l7.292,23.647    c7.256,23.529,20.222,38.144,33.838,38.144c0.007,0,0.012,0,0.018,0c13.66-0.013,26.643-14.706,33.884-38.344l7.311-23.867    c0.97-3.169,4.324-4.951,7.494-3.979c3.168,0.97,4.95,4.326,3.979,7.494l-7.311,23.867c-8.976,29.305-25.928,46.811-45.346,46.83    C396.065,374.484,396.053,374.484,396.044,374.484z"/>
	</g>
	<g>
		<path style="fill:#FAB941;" d="M405.066,360.333c-2.93,1.406-5.949,2.148-9.003,2.151c-0.006,0-0.011,0-0.018,0    c-13.616,0-26.582-14.615-33.838-38.144l-7.292-23.647c-0.977-3.167-4.335-4.943-7.501-3.966    c-3.167,0.977-4.942,4.335-3.965,7.502l7.292,23.647c9.001,29.188,25.934,46.608,45.304,46.608c0.009,0,0.021,0,0.031,0    c5.324-0.005,10.46-1.333,15.3-3.85C406.333,370.211,403.157,365.006,405.066,360.333z"/>
	</g>
	<g>
		<path style="fill:#494970;" d="M181.106,370.919l-1.939-17.076c-2.556,5.517-8.127,9.353-14.607,9.353    c-6.857,0-12.698-4.293-15.021-10.332l-9.454,130.019c4.402,2.367,8.88,4.617,13.443,6.719l18.566-74.32    c0.471-1.679,0.244-3.477-0.629-4.987L161.23,392.59c-0.54-0.934-0.306-2.123,0.547-2.783l16.857-13.037    C180.424,375.385,181.361,373.167,181.106,370.919z"/>
	</g>
	<g>
		<path style="fill:#494970;" d="M56.688,409.454c8.345,11.66,17.69,22.57,27.925,32.598l-6.344-87.251    c-2.733,5.001-8.04,8.394-14.141,8.394c-7.25,0-13.378-4.792-15.398-11.379l-2.169,19.103c-0.255,2.248,0.682,4.467,2.472,5.851    l16.857,13.037c0.853,0.66,1.087,1.849,0.547,2.783L56.688,409.454z"/>
	</g>
	<path style="fill:#F9D6BF;" d="M169.575,187.274c-0.647-1.693-1.462-3.407-2.489-5.024c-1.74-2.739-2.505-5.978-2.272-9.208   c0.671-9.29,0.311-27.458-11.844-32.945c-10.326-4.662-22.993-1.963-31.071,0.732c-5.246,1.75-10.932,1.75-16.178,0   c-8.078-2.695-20.745-5.394-31.071-0.732c-12.189,5.503-12.516,23.76-11.838,33.025c0.477,6.519-2.674,8.757-4.706,13.994   c-2.065,5.323-2.667,11.096-1.894,16.749l2.874,21c0,30.191,16.063,50.711,29.726,61.356c7.132,5.557,15.933,8.575,24.997,8.575   s17.866-3.018,24.997-8.575c13.663-10.645,29.726-31.166,29.726-61.356l2.873-20.995   C172.173,198.272,171.592,192.556,169.575,187.274z"/>
	<g>
		<path style="fill:#EFC1A8;" d="M108.827,286.221c-10.365-10.645-22.551-31.165-22.551-61.356l-2.18-21    c-0.876-8.434,0.705-16.274,3.278-21.614c1.31-2.718,1.906-5.924,1.728-9.129c-0.515-9.265-0.267-27.522,8.981-33.025    c0.601-0.357,1.216-0.658,1.835-0.932c-7.636-1.847-17.167-2.724-25.268,0.932c-12.189,5.503-12.516,23.76-11.838,33.025    c0.477,6.518-2.674,8.758-4.706,13.994c-2.065,5.323-2.667,11.096-1.894,16.749l2.874,21c0,30.191,16.063,50.711,29.726,61.356    c7.132,5.557,15.933,8.575,24.997,8.575c2.686,0,5.347-0.272,7.95-0.789C117.07,292.778,112.634,290.131,108.827,286.221z"/>
	</g>
</g>















</svg>
